<?xml version="1.0" encoding="utf-8"?>
<!-- Generator: Adobe Illustrator 24.1.2, SVG Export Plug-In . SVG Version: 6.00 Build 0)  -->
<svg version="1.1" id="Layer_1" xmlns="http://www.w3.org/2000/svg" xmlns:xlink="http://www.w3.org/1999/xlink" x="0px" y="0px"
	 viewBox="0 0 100 100" style="enable-background:new 0 0 100 100;" xml:space="preserve">
<g id="down" transform="translate(0 -59.382)">
	<path id="Path_11263" d="M99,86.2l-5-5c-1.2-1.3-3.2-1.3-4.4-0.2c-0.1,0.1-0.1,0.1-0.2,0.2L50,120.6L10.6,81.2
		c-1.2-1.3-3.2-1.3-4.4-0.2c-0.1,0.1-0.1,0.1-0.2,0.2l-5,5c-1.3,1.2-1.3,3.2-0.2,4.4c0.1,0.1,0.1,0.1,0.2,0.2l46.7,46.7
		c1.2,1.3,3.2,1.3,4.4,0.2c0.1-0.1,0.1-0.1,0.2-0.2L99,90.8c1.3-1.2,1.3-3.2,0.1-4.5C99.1,86.3,99.1,86.3,99,86.2z"/>
</g>
</svg>
